<svg version="1.1" id="Layer_1" xmlns="http://www.w3.org/2000/svg" xmlns:xlink="http://www.w3.org/1999/xlink" x="0px" y="0px" viewBox="0 0 64.9 64.9" style="enable-background:new 0 0 64.9 64.9;" xml:space="preserve">
 <style type="text/css">
  .st0{fill-rule:evenodd;clip-rule:evenodd;}
 </style>
 <g>
  <path class="st0" d="M27.9,60.5l13.8-24l-9.4,0l4.6-8.1l22,0l-4.7,8.1l-7.9,0l-14,24.4C48,60.8,60.8,48,60.8,32.4
		C60.8,16.8,48,4.1,32.4,4.1c-1.1,0-2.3,0.1-3.4,0.2l-14,24.1h17.3l-4.7,8.1H5.8l17.9-31C12.3,9.1,4,19.9,4,32.4
		C4,46.5,14.4,58.3,27.9,60.5 M32.4,0c17.8,0,32.5,14.6,32.5,32.4c0,17.9-14.6,32.5-32.5,32.5C14.6,64.9,0,50.3,0,32.4
		C0,14.6,14.6,0,32.4,0">
  </path>
 </g>
</svg>